<svg xmlns="http://www.w3.org/2000/svg" viewBox="0 0 110 123.97"><defs><style>.cls-1{fill:none;}.cls-2{fill:#757576;}.cls-3{fill:#212120;}.cls-4{fill:#fff;}.cls-5{fill:#616262;}</style></defs><title>Asset 3</title><g id="Layer_2" data-name="Layer 2"><g id="Logo"><path class="cls-1" d="M59.57,47.36a2.21,2.21,0,0,0,0-.37V27.83l0,.07Z"/><path class="cls-2" d="M17.24,47.77A13.08,13.08,0,1,1,37.16,31.38a12.7,12.7,0,0,1,1.51,4.14,2.82,2.82,0,0,0,3.77,2.07L59.57,27.7,13.73,1.23A9.1,9.1,0,0,0,.09,9.11V61.88l16.64-9.52A2.85,2.85,0,0,0,17.24,47.77Z"/><path class="cls-2" d="M.28,61.93H.09l.09,0Z"/><path class="cls-3" d="M38.65,88.62a13,13,0,0,1-2.39,5.43,13.09,13.09,0,1,1-19-17.79,2.83,2.83,0,0,0-.49-4.58L.09,62v52.82a9.1,9.1,0,0,0,13.64,7.88L59.48,96.33l-16.6-9.59A2.85,2.85,0,0,0,38.65,88.62Z"/><polygon class="cls-3" points="0.09 61.93 0.09 62.04 0.18 61.98 0.09 61.93"/><path class="cls-4" d="M55.87,74.39A13.09,13.09,0,1,1,50.33,49a12.94,12.94,0,0,1,5.55.68,2.82,2.82,0,0,0,3.69-2.33V27.9l0-.07h0l0,0V27.7L42.44,37.59a2.82,2.82,0,0,1-3.77-2.07,12.7,12.7,0,0,0-1.51-4.14A13.09,13.09,0,1,0,17.24,47.77a2.85,2.85,0,0,1-.51,4.59L.09,61.88l-.09,0H.28l-.1,0L.09,62l16.7,9.64a2.83,2.83,0,0,1,.49,4.58,13.08,13.08,0,1,0,19,17.79,13,13,0,0,0,2.39-5.43,2.85,2.85,0,0,1,4.23-1.88l16.6,9.59.09,0V76.72A2.82,2.82,0,0,0,55.87,74.39Z"/><path class="cls-5" d="M105.45,54.16,59.62,27.7h0v.13h0V47a2.21,2.21,0,0,1,0,.37,2.82,2.82,0,0,1-3.69,2.33A12.94,12.94,0,0,0,50.33,49a13.08,13.08,0,1,0,5.54,25.38,2.82,2.82,0,0,1,3.7,2.33,2.21,2.21,0,0,1,0,.37V96.38h0l45.83-26.46A9.1,9.1,0,0,0,105.45,54.16Z"/></g></g></svg>