<svg fill="#000000" width="24px" height="24px" viewBox="0 0 1024 1024" version="1.1" xmlns="http://www.w3.org/2000/svg">
  <path d="M1056.000001 193.714286l-292 0 0 70.857143 292 0 0-70.857143zm-144 243.428571q-51.428571 0-83.428571 30t-35.428571 81.428571l233.142857 0q-10.285714-111.428571-114.285714-111.428571zm9.142857 334.285714q36 0 69.714286-18.285714t43.428571-49.714286l126.285714 0q-57.142857 175.428571-244 175.428571-122.285714 0-194.571429-75.428571t-72.285714-198.285714q0-118.857143 74.571429-197.428571t192.285714-78.571429q78.857143 0 137.428571 38.857143t87.428571 102.285714 28.857143 141.714286q0 9.714286-1.142857 26.857143l-376 0q0 63.428571 32.857143 98t95.142857 34.571429zm-762.857143-28.571429l169.142857 0q117.142857 0 117.142857-95.428571 0-102.857143-113.714286-102.857143l-172.571429 0 0 198.285714zm0-306.857143l160.571429 0q44.571429 0 70.571429-20.857143t26-64.857143q0-82.285714-108.571429-82.285714l-148.571429 0 0 168zm-158.285714-290.857143l339.428571 0q49.714286 0 88.571429 8t72.285714 27.142857 51.428571 55.142857 18 88q0 103.428571-98.285714 150.285714 65.142857 18.285714 98.285714 65.714286t33.142857 116.571429q0 42.857143-14 78t-37.714286 59.142857-56.285714 40.571429-69.142857 24-76.571429 7.428571l-349.142857 0 0-720z" />
</svg>