<svg fill="#000000" width="24px" height="24px" viewBox="0 0 1024 1024" version="1.1" xmlns="http://www.w3.org/2000/svg">
  <path d="M161.431 147.172l699.701 0 0 78.813-699.701 0 0-78.814z" />
  <path d="M800.298 616.311l0-308.108-578.031 0 0 308.108 578.031 0zM306.076 386.961l411.23 0 0 150.633-411.23 0 0-150.633z" />
  <path d="M675.281 793.89c25.15-38.487 48.885-83.129 70.879-133.81l-84.107-30.649c-21.885 60.046-47.337 114.974-76.324 164.459l-146.332 0c-24.225-64.156-51.607-119.031-82.313-164.459l-77.357 30.649c31.9 47.851 57.651 92.383 77.357 133.81l-215.414 0 0 77.957 739.278 0 0-77.957-205.67 0z" />
</svg>
