<svg fill="#000000" width="24px" height="24px" viewBox="0 0 1024 1024" version="1.1" xmlns="http://www.w3.org/2000/svg">
  <path d="M512 996.693333C245.76 996.693333 27.306667 778.24 27.306667 512 27.306667 245.76 245.76 27.306667 512 27.306667c266.24 0 484.693333 218.453333 484.693333 484.693333C996.693333 778.24 778.24 996.693333 512 996.693333zM512 78.506667C273.066667 78.506667 78.506667 273.066667 78.506667 512S273.066667 945.493333 512 945.493333 945.493333 750.933333 945.493333 512 750.933333 78.506667 512 78.506667z" />
  <path d="M655.36 512m-129.706667 0a3.8 3.8 0 1 0 259.413333 0 3.8 3.8 0 1 0-259.413333 0Z" />
  <path d="M368.64 512m-129.706667 0a3.8 3.8 0 1 0 259.413333 0 3.8 3.8 0 1 0-259.413333 0Z" />
</svg>