<svg fill="#000000" width="24px" height="24px" viewBox="0 0 1024 1024" version="1.1" xmlns="http://www.w3.org/2000/svg">
  <path d="M621.31315 72.459289l-228.995461 0c-60.030212 0-135.601374 8.695033-198.98189 59.797921-47.839565 40.21184-71.180156 95.678106-71.180156 145.682987 0 84.786035 66.730821 170.671101 184.5369 170.671101 11.150968 0 23.341614-1.098008 35.619242-2.167363-5.574972 13.028735-11.122315 23.89113-11.122315 42.407855 0 33.68417 17.73799 54.338582 33.308617 73.894987-50.004881 3.264347-143.401014 8.695033-212.32785 50.005904-65.60416 38.046524-85.59547 93.483114-85.59547 132.624577 0 80.453357 77.794807 155.476027 239.019769 155.476027 191.20988 0 292.377-103.274108 292.377-205.451232 0-75.021647-44.402279-111.99984-93.367481-152.21168l-40.037878-30.447453c-12.219299-9.764388-28.887934-22.821775-28.887934-46.741557 0-23.890107 16.668635-39.142485 31.141254-53.269227 46.654576-35.879162 93.366458-73.925686 93.366458-154.37802 0-82.619696-53.357232-126.096906-78.951143-146.751319l68.926836 0L621.31315 72.459289zM523.497357 737.809909c0 67.367317-56.678884 117.373221-163.419953 117.373221-118.961392 0-195.687868-55.43659-195.687868-132.626623 0-77.18901 71.180156-103.274108 95.619778-111.969141 46.683229-15.223726 106.74107-17.419741 116.765377-17.419741 11.092639 0 16.638959 0 25.536606 1.098008C486.838436 652.994198 523.497357 682.316014 523.497357 737.809909zM434.608887 387.745045c-17.822924 17.36039-47.895847 30.447453-75.658144 30.447453-95.591125 0-138.980331-120.694873-138.980331-193.521528 0-28.281113 5.547343-57.631582 24.496927-80.453357 17.795295-21.75242 48.879244-35.879162 77.794807-35.879162 92.298126 0 140.078339 121.763205 140.078339 200.021569C462.341508 327.916425 460.116841 362.727255 434.608887 387.745045zM842.798567 238.016929 842.798567 127.57763l-55.464219 0 0 110.439298L676.402839 238.016929l0 55.234999 110.930485 0 0 110.438275 55.464219 0L842.797543 293.251927l110.929462 0 0-55.234999L842.798567 238.016929z" />
</svg>
