<svg fill="#000000" width="24px" height="24px" viewBox="0 0 1024 1024" version="1.1" xmlns="http://www.w3.org/2000/svg">
  <path d="M444.56 671.968c-16.832 85.472-35.936 155.392-57.296 209.776S333.84 978.224 291.104 1008c-5.184-29.776-7.12-62.48-5.824-98.096 1.264-35.616 3.2-66.352 5.824-92.256 2.592-25.904 7.44-55.04 14.576-87.408 7.088-32.368 13.888-60.224 20.4-83.536 6.464-23.296 13.888-50.816 22.336-82.544 8.416-31.712 14.56-58.56 18.448-80.608-12.96-24.576-19.424-53.088-19.424-85.472 0-32.336 5.504-62.16 16.512-89.344 10.976-27.2 28.464-47.888 52.432-62.16 23.968-14.24 50.176-16.192 78.672-5.824 27.2 11.664 42.08 31.744 44.672 60.208 2.592 28.496-1.936 59.92-13.6 94.208-11.648 34.32-22.656 68.32-33.008 101.984-10.384 33.696-11.664 63.44-3.888 89.344 7.76 25.888 28.48 42.08 62.16 48.544 45.312 9.072 85.776-3.872 121.392-38.848 35.616-34.96 60.224-77.984 73.808-129.168 13.6-51.152 17.152-104.56 10.688-160.24-6.48-55.648-24.608-98.384-54.384-128.192-32.368-33.664-71.216-55.648-116.528-66.032-45.328-10.352-89.36-8.736-132.096 4.864-42.72 13.6-81.904 34.32-117.504 62.16-35.648 27.872-62.48 63.792-80.608 107.792-18.16 44.016-23.312 90.016-15.536 137.904 2.592 12.944 7.776 26.224 15.536 39.824 7.776 13.6 14.576 24.96 20.4 34 5.824 9.056 8.416 21.68 7.76 37.872-0.672 16.208-6.8 33.984-18.448 53.408-97.12-22-143.728-97.76-139.84-227.248 3.888-91.936 39.136-169.632 105.856-233.072 66.688-63.424 143.408-100.336 230.176-110.72 108.768-11.648 204.592 7.12 287.456 56.336 82.88 49.232 130.8 121.728 143.728 217.552 10.352 73.808 4.528 145.664-17.488 215.6-22 69.92-59.568 126.576-112.656 169.952-53.072 43.392-115.232 62.48-186.448 57.312-14.256-1.296-27.52-4.224-39.808-8.752-12.32-4.528-22.336-9.056-30.112-13.6-7.76-4.528-18.16-11.328-31.072-20.384C462.688 684.288 452.336 677.152 444.56 671.968z" />
</svg>