<?xml version="1.0" standalone="no"?>
<!DOCTYPE svg PUBLIC "-//W3C//DTD SVG 20010904//EN"
 "http://www.w3.org/TR/2001/REC-SVG-20010904/DTD/svg10.dtd">
<svg version="1.0" xmlns="http://www.w3.org/2000/svg"
 width="373.000000pt" height="373.000000pt" viewBox="0 0 373.000000 373.000000"
 preserveAspectRatio="xMidYMid meet">
<metadata>
Created by potrace 1.11, written by Peter Selinger 2001-2013
</metadata>
<g transform="translate(0.000000,373.000000) scale(0.100000,-0.100000)"
fill="#000000" stroke="none">
<path d="M420 3721 c-86 -27 -146 -79 -184 -161 -20 -45 -20 -54 -20 -1695
l-1 -1650 23 -46 c54 -112 168 -174 289 -158 43 5 106 38 360 184 169 98 328
189 353 203 25 13 50 28 55 32 6 5 37 23 70 40 33 18 67 39 76 46 8 8 18 14
21 14 6 0 476 269 508 290 8 6 24 14 35 19 11 5 76 41 145 81 69 40 139 80
155 90 17 9 134 77 260 150 127 73 246 141 265 152 283 161 574 335 598 356
69 64 100 166 78 262 -12 50 -40 101 -73 131 -34 32 -87 63 -768 454 -93 54
-182 105 -197 114 -15 9 -78 45 -140 81 -62 36 -122 70 -133 77 -11 6 -36 20
-55 31 -19 10 -91 52 -160 92 -68 40 -140 82 -160 93 -19 10 -165 95 -325 187
-159 92 -306 176 -325 187 -19 11 -120 70 -225 130 -256 149 -262 153 -323
185 -57 30 -153 43 -202 29z"/>
</g>
</svg>
