<svg fill="#000000" width="24px" height="24px" viewBox="0 0 1024 1024" version="1.1" xmlns="http://www.w3.org/2000/svg">
  <path d="M512.091 166.946c116.242 0 232.484-0.014 348.727 0.007 41.522 0.008 76.321 12.188 94.842 53.167 8.25 18.251 6.5 30.831-13.43 43.256-137.452 85.695-274.125 172.655-410.534 260.014-14.762 9.456-24.638 9.569-39.498 0.041C354.353 435.041 216.033 347.399 77.465 260.14c-12.701-8.002-16.368-15.572-12.01-29.962 9.882-32.627 30.845-52.873 63.868-59.66 13.656-2.806 27.953-3.4 41.966-3.431C284.888 166.83 398.492 166.943 512.091 166.946z" />
  <path d="M510.888 856.021c-117.998 0-235.996 0.134-353.993-0.067-47.671-0.083-79.295-22.331-91.17-61.206-4.28-14.027-2.127-22.232 10.858-30.356 108.193-67.725 215.807-136.366 324.233-203.713 7.275-4.519 21.51-4.25 29.378-0.171 22.589 11.713 44.026 25.859 64.999 40.383 11.823 8.191 21.091 8.623 33.117 0.325 20.993-14.484 43.689-26.52 64.549-41.176 12.159-8.539 20.73-7.176 32.785 0.537 106.04 67.844 212.318 135.315 319.158 201.894 16.481 10.272 18.065 21.564 12.577 37.407-12.35 35.666-45.183 55.999-92.491 56.081C746.889 856.149 628.886 856.021 510.888 856.021z" />
  <path d="M64.376 326.925c97.051 61.769 192.332 122.409 290.508 184.898-97.877 62.309-192.719 122.68-290.508 184.932C64.376 572.674 64.376 451.511 64.376 326.925z" />
  <path d="M959.665 327.168c0 124.369 0 244.164 0 369.253-97.913-62.322-192.914-122.792-290.001-184.589C766.993 449.854 861.628 389.595 959.665 327.168z" />
</svg>
