<svg fill="#000000" width="24px" height="24px" viewBox="0 0 1024 1024" version="1.1" xmlns="http://www.w3.org/2000/svg">
  <path d="M116.434944 581.71392c-33.540096 78.963712-38.984704 154.297344-12.058624 168.370176 18.572288 9.696256 47.685632-12.382208 74.93632-52.909056 10.790912 44.156928 37.492736 84.13696 75.63264 116.209664-40.003584 14.768128-66.13504 38.8864-66.13504 66.23232 0 44.9536 70.709248 81.301504 157.9776 81.301504 78.715904 0 143.906816-29.538304 155.93984-68.371456 3.231744-0.049152 15.663104-0.049152 18.79552 0 12.0832 38.784 77.324288 68.371456 155.988992 68.371456 87.267328 0 157.9776-36.39808 157.9776-81.301504 0-27.296768-26.104832-51.464192-66.13504-66.23232 38.088704-32.12288 64.888832-72.052736 75.630592-116.209664 27.250688 40.526848 56.290304 62.605312 74.887168 52.909056 26.949632-14.072832 21.630976-89.455616-12.032-168.370176-26.354688-62.058496-62.109696-107.754496-89.45664-117.848064 0.398336-3.929088 0.595968-7.957504 0.595968-11.93472 0-23.967744-6.66112-46.145536-18.049024-64.195584 0.198656-1.39264 0.198656-2.834432 0.198656-4.227072 0-11.037696-2.635776-21.38112-7.113728-30.331904-6.908928-161.308672-111.930368-289.401856-281.86624-289.401856-170.036224 0-275.105792 128.093184-281.94304 289.401856-4.525056 9.00096-7.135232 19.34336-7.135232 30.331904 0 1.39264 0.099328 2.835456 0.149504 4.227072-11.287552 18.050048-17.95072 40.177664-17.95072 64.195584 0 3.97824 0.149504 7.955456 0.497664 11.93472C178.61632 473.959424 142.739456 519.706624 116.434944 581.71392z" />
</svg>