<svg xmlns="http://www.w3.org/2000/svg" xmlns:xlink="http://www.w3.org/1999/xlink" version="1.1" viewBox="60 60 130 130">
<g>
<path transform="matrix(1,0,0,-1,91.2359,110.7836)" d="M0 0C-1.459 1.259-2.67 2.872-3.493 4.807-5.848 10.342-4.026 16.923 .843 20.454 7.261 25.107 16.099 23.076 19.927 16.386 20.683 15.065 21.18 13.667 21.437 12.251 21.753 10.51 23.603 9.59 25.201 10.181L42.333 20.072-3.502 46.535C-9.567 50.037-17.147 45.66-17.147 38.657V-14.113L-.508-4.594C1.175-3.631 1.468-1.267 0 0" fill="#fcb64e"/>
<path transform="matrix(1,0,0,-1,74.2803,124.942)" d="M0 0C-.064 0-.128-.002-.192-.004V-.005L-.101-.058Z" fill="#fcb64e"/>
<path transform="matrix(1,0,0,-1,112.6543,151.6317)" d="M0 0C-.354-1.895-1.137-3.753-2.395-5.438-5.992-10.259-12.595-11.998-18.097-9.568-25.348-6.366-28.043 2.293-24.19 8.968-23.429 10.287-22.471 11.42-21.377 12.355-19.908 13.611-20.189 15.969-21.862 16.935L-38.566 26.579V-26.242C-38.566-33.245-30.985-37.621-24.92-34.12L20.823-7.71 4.225 1.874C2.545 2.843 .355 1.906 0 0" fill="#56a0d7"/>
<path transform="matrix(1,0,0,-1,74.0884,124.9471)" d="M0 0V-.106L.091-.053Z" fill="#56a0d7"/>
<path transform="matrix(1,0,0,-1,129.8726,137.40271)" d="M0 0C-1.352-.476-2.805-.736-4.321-.736-12.028-.736-18.18 5.928-17.328 13.809-16.665 19.936-11.683 24.817-5.545 25.38-3.585 25.559-1.707 25.302 .007 24.697 1.712 24.096 3.467 25.291 3.696 27.027V46.485C3.711 46.51 3.728 46.535 3.742 46.56V46.561L3.696 46.535V46.691L-13.436 36.8C-15.034 36.209-16.884 37.129-17.2 38.87-17.457 40.286-17.954 41.684-18.71 43.005-22.538 49.696-31.376 51.726-37.793 47.073-42.663 43.542-44.484 36.961-42.13 31.426-41.307 29.491-40.096 27.878-38.637 26.619-37.169 25.352-37.461 22.988-39.145 22.026L-55.784 12.506-55.873 12.456C-55.843 12.456-55.814 12.457-55.784 12.457-55.721 12.459-55.657 12.46-55.592 12.461L-55.693 12.403-55.784 12.35-39.081 2.706C-37.407 1.74-37.126-.618-38.595-1.874-39.689-2.809-40.647-3.942-41.408-5.261-45.262-11.936-42.566-20.595-35.315-23.797-29.813-26.227-23.21-24.488-19.613-19.667-18.355-17.982-17.572-16.124-17.218-14.229-16.863-12.323-14.673-11.386-12.994-12.355L3.605-21.939 3.696-21.991V-2.331C3.467-.592 1.709 .602 0 0" fill="#ae1e59"/>
<path transform="matrix(1,0,0,-1,179.4517,117.17461)" d="M0 0-45.835 26.463V26.461C-45.835 26.461-45.836 26.462-45.837 26.463V26.333 26.332 7.172C-45.837 7.043-45.866 6.923-45.883 6.799-46.112 5.062-47.867 3.868-49.572 4.469-51.286 5.074-53.164 5.331-55.124 5.151-61.262 4.589-66.244-.292-66.907-6.42-67.759-14.3-61.607-20.964-53.9-20.964-52.384-20.964-50.931-20.704-49.579-20.228-47.87-19.626-46.112-20.82-45.883-22.559-45.866-22.683-45.837-22.803-45.837-22.932V-42.219C-45.836-42.219-45.836-42.218-45.836-42.218L-45.835-42.22 0-15.756C6.064-12.255 6.064-3.501 0 0" fill="#ef5451"/>
</g>
</svg>
